<?xml version="1.0" encoding="UTF-8"?>
<svg id="Layer_2" data-name="Layer 2" xmlns="http://www.w3.org/2000/svg" viewBox="0 0 918.29 769.28">
  <defs>
    <style>
      .cls-1 {
        opacity: .4;
      }

      .cls-1, .cls-2, .cls-3, .cls-4, .cls-5 {
        stroke-width: 0px;
      }

      .cls-2 {
        fill: #ffc988;
      }

      .cls-3 {
        fill: #b77629;
      }

      .cls-6 {
        fill: none;
        stroke: #000;
        stroke-miterlimit: 10;
        stroke-width: 2px;
      }

      .cls-4 {
        fill: #27c61a;
      }

      .cls-5 {
        fill: #dd8919;
      }
    </style>
  </defs>
  <g id="Layer_9" data-name="Layer 9">
    <g>
      <path class="cls-4" d="M863.09,769.28c0-90.25-176.66-163.42-394.58-163.42s-394.58,73.16-394.58,163.42h789.17Z"/>
      <ellipse class="cls-1" cx="468.51" cy="687.57" rx="277.28" ry="53.39"/>
      <rect class="cls-3" x="268.78" y="451.8" width="78.47" height="235.77" rx="10" ry="10"/>
      <rect class="cls-5" x="258.78" y="451.8" width="78.47" height="235.77" rx="10" ry="10"/>
      <rect class="cls-3" x="610.98" y="451.8" width="78.47" height="235.77" rx="10" ry="10" transform="translate(1300.44 1139.38) rotate(-180)"/>
      <rect class="cls-5" x="600.98" y="451.8" width="78.47" height="235.77" rx="10" ry="10" transform="translate(1280.44 1139.38) rotate(-180)"/>
      <rect class="cls-3" x="151.37" y="118.69" width="657" height="363.85" rx="10" ry="10"/>
      <rect class="cls-5" x="151.37" y="118.69" width="647" height="355.85" rx="10" ry="10"/>
      <path class="cls-2" d="M773.81,466.37c-11.82.03-11.76-1.8-23.56-2.6s-11.86.2-23.66-.6c-11.8-.8-11.73-1.8-23.52-2.6s-11.86.2-23.66-.6-11.74-2.6-23.56-2.6c-11.82,0-11.76,1.8-23.56,2.6s-11.86-.2-23.66.6-11.73,1.8-23.52,2.6c-11.8.8-11.86-.2-23.66.6s-11.74,2.6-23.56,2.6-11.76-1.8-23.56-2.6c-11.79-.8-11.86.2-23.66-.6s-11.73-1.8-23.52-2.6-11.86.2-23.66-.6-11.74-2.6-23.56-2.6-11.76,1.8-23.56,2.6-11.86-.2-23.66.6c-11.8.8-11.73,1.8-23.52,2.6s-11.87-.2-23.66.6-11.74,2.6-23.56,2.6c-11.82,0-11.76-1.8-23.56-2.6s-11.86.2-23.66-.6-11.73-1.8-23.52-2.6-11.87.2-23.66-.6-11.73-2.53-23.56-2.6c-.85,0,0,1.49-.44,2.22s-1.29.22-1.72.95.43,1.24,0,1.97-1.29.22-1.73.96.22,2.45-.59,2.2.73-1.27.81-2.12-.92-.94-.84-1.78,1.08-.75,1.16-1.6-.92-.94-.83-1.79,1.64-1.55.95-2.05-.88,1.2-1.65,1.54-1.18-.58-1.95-.24-.38,1.26-1.16,1.59-1.18-.58-1.96-.24-1.26,2.12-1.77,1.43,1.34-.6,1.9-1.24-.19-1.3.37-1.93,1.31.02,1.87-.61-.19-1.3.38-1.94,2.24-.29,1.98-1.1-1.41.46-2.24.27-.61-1.16-1.44-1.35-1.05.79-1.88.6-.61-1.16-1.44-1.35-2.27.97-2.27.12c-.03-6.19,1.8-6.07,2.6-12.21s-.19-6.27.61-12.4,1.79-6,2.59-12.14-.19-6.27.61-12.41,2.6-6.02,2.6-12.21-1.8-6.07-2.6-12.2.19-6.27-.61-12.4-1.79-6.01-2.59-12.14.19-6.27-.61-12.41-2.6-6.02-2.6-12.21,1.8-6.07,2.6-12.2-.19-6.27.61-12.4c.8-6.13,1.79-6.01,2.59-12.14s-.19-6.27.61-12.41,2.6-6.02,2.6-12.21-1.8-6.07-2.6-12.2.19-6.27-.61-12.4-1.79-6.01-2.59-12.14.19-6.27-.61-12.41-2.6-6.02-2.6-12.21c0-6.19,1.8-6.07,2.6-12.2s-.19-6.27.61-12.4,1.79-6.01,2.59-12.14-.19-6.27.61-12.41,2.53-6.02,2.6-12.21c0-.85-1.49,0-2.22-.44s-.22-1.29-.95-1.72-1.24.43-1.97,0-.22-1.29-.96-1.73-2.45.22-2.2-.59,1.27.73,2.12.81.94-.92,1.78-.84.75,1.08,1.6,1.16.94-.92,1.79-.83,1.55,1.64,2.05.95-1.2-.88-1.54-1.65.58-1.18.24-1.95-1.26-.38-1.59-1.16.58-1.18.24-1.96-2.12-1.26-1.43-1.77.6,1.34,1.24,1.9,1.3-.19,1.93.37-.02,1.31.61,1.87,1.3-.19,1.94.38.29,2.24,1.1,1.98-.46-1.41-.27-2.24,1.16-.61,1.35-1.44-.79-1.05-.6-1.88,1.16-.61,1.35-1.44-.97-2.27-.12-2.27c11.82-.03,11.76,1.8,23.56,2.6s11.86-.2,23.66.6,11.73,1.8,23.52,2.6,11.86-.2,23.66.6,11.74,2.6,23.56,2.6,11.76-1.8,23.56-2.6,11.86.2,23.66-.6,11.73-1.8,23.52-2.6,11.86.2,23.66-.6,11.74-2.6,23.56-2.6,11.76,1.8,23.56,2.6,11.86-.2,23.66.6c11.8.8,11.73,1.8,23.52,2.6s11.86-.2,23.66.6,11.74,2.6,23.56,2.6,11.76-1.8,23.56-2.6,11.86.2,23.66-.6c11.8-.8,11.73-1.8,23.52-2.6,11.8-.8,11.87.2,23.66-.6s11.74-2.6,23.56-2.6,11.76,1.8,23.56,2.6,11.86-.2,23.66.6c11.8.8,11.73,1.8,23.52,2.6,11.8.8,11.87-.2,23.66.6s11.73,2.53,23.56,2.6c.85,0,0-1.49.44-2.22s1.29-.22,1.72-.95-.43-1.24,0-1.97,1.29-.22,1.73-.96-.22-2.45.59-2.2-.73,1.27-.81,2.12.92.94.84,1.78-1.08.75-1.16,1.6.92.94.83,1.79-1.64,1.55-.95,2.05.88-1.2,1.65-1.54,1.18.58,1.95.24.38-1.26,1.16-1.59,1.18.58,1.96.24,1.26-2.12,1.77-1.43-1.34.6-1.9,1.24.19,1.3-.37,1.93-1.31-.02-1.87.61.19,1.3-.38,1.94-2.24.29-1.98,1.1,1.41-.46,2.24-.27.61,1.16,1.44,1.35,1.05-.79,1.88-.6.61,1.16,1.44,1.35,2.27-.97,2.27-.12c.03,6.19-1.8,6.07-2.6,12.21s.19,6.27-.61,12.4-1.79,6-2.59,12.14.19,6.27-.61,12.41-2.6,6.02-2.6,12.21,1.8,6.07,2.6,12.2-.19,6.27.61,12.4,1.79,6.01,2.59,12.14-.19,6.27.61,12.41,2.6,6.02,2.6,12.21-1.8,6.07-2.6,12.2.19,6.27-.61,12.4-1.79,6.01-2.59,12.14.19,6.27-.61,12.41-2.6,6.02-2.6,12.21,1.8,6.07,2.6,12.2-.19,6.27.61,12.4,1.79,6.01,2.59,12.14-.19,6.27.61,12.41,2.6,6.02,2.6,12.21-1.8,6.07-2.6,12.2.19,6.27-.61,12.4-1.79,6.01-2.59,12.14.19,6.27-.61,12.41-2.53,6.02-2.6,12.21c0,.85,1.49,0,2.22.44s.22,1.29.95,1.72,1.24-.43,1.97,0,.22,1.29.96,1.73,2.45-.22,2.2.59-1.27-.73-2.12-.81-.94.92-1.78.84-.75-1.08-1.6-1.16-.94.92-1.79.83-1.55-1.64-2.05-.95,1.2.88,1.54,1.65-.58,1.18-.24,1.95,1.26.38,1.59,1.16-.58,1.18-.24,1.96,2.12,1.26,1.43,1.77-.6-1.34-1.24-1.9-1.3.19-1.93-.37.02-1.31-.61-1.87-1.3.19-1.94-.38-.29-2.24-1.1-1.98.46,1.41.27,2.24-1.16.61-1.35,1.44.79,1.05.6,1.88-1.38.72-1.36,1.57c.03,1.21.98,2.14.13,2.15Z"/>
      <g>
        <path class="cls-6" d="M.62,45.77s69.57,54.74,179.6,54.74S261.11,1,196.39,1s-45.3,67.15-12.94,67.15,48.72-38.83,9.71-38.83"/>
        <path class="cls-6" d="M.62,83.51s69.57,54.74,179.6,54.74,80.9-99.51,16.18-99.51-45.3,67.15-12.94,67.15,48.72-38.83,9.71-38.83"/>
        <path class="cls-6" d="M.62,118.58s69.57,54.74,179.6,54.74,80.9-99.51,16.18-99.51-45.3,67.15-12.94,67.15,48.72-38.83,9.71-38.83"/>
      </g>
      <g>
        <path class="cls-6" d="M663.99,465.25s69.57,54.74,179.6,54.74,80.9-99.51,16.18-99.51-45.3,67.15-12.94,67.15,48.72-38.83,9.71-38.83"/>
        <path class="cls-6" d="M663.99,502.99s69.57,54.74,179.6,54.74,80.9-99.51,16.18-99.51-45.3,67.15-12.94,67.15,48.72-38.83,9.71-38.83"/>
        <path class="cls-6" d="M663.99,538.06s69.57,54.74,179.6,54.74,80.9-99.51,16.18-99.51-45.3,67.15-12.94,67.15,48.72-38.83,9.71-38.83"/>
      </g>
    </g>
  </g>
</svg>