<?xml version="1.0" encoding="UTF-8"?>
<svg id="Layer_2" data-name="Layer 2" xmlns="http://www.w3.org/2000/svg" viewBox="0 0 29.3 21.12">
  <defs>
    <style>
      .cls-1 {
        stroke-width: 0px;
      }
    </style>
  </defs>
  <g id="Layer_1-2" data-name="Layer 1">
    <g>
      <path class="cls-1" d="M.86,1.03c1.09,0,1.81.34,2.15,1.03l.09.6c0,.98-.43,1.46-1.29,1.46h-.09c-1.15-.25-1.72-.82-1.72-1.72v-.35c0-.38.29-.72.86-1.03ZM.95,2.06c0,.75.34,1.12,1.03,1.12l.09-.17v-.26c-.11-.57-.4-.86-.86-.86h-.09c-.11.02-.17.07-.17.17ZM5.6.86h.09c.3,0,.53,1.18.69,3.53v.43c0,.31-.17.51-.52.6-.34-.12-.52-.35-.52-.69v-.6h-.52c-1.03,0-1.55-.12-1.55-.35v-.09c0-.24.11-.44.34-.6l.86.09h.52l.17.09.09-.17-.09-.6h-1.21c-.42,0-.65-.09-.69-.26v-.26c.15-.29.38-.43.69-.43h1.03c0-.46.2-.69.6-.69Z"/>
      <path class="cls-1" d="M7.33,4.22h2.67c.92.04,1.38.18,1.38.43v.43c0,.17-.12.26-.35.26-.03,0-.41-.03-1.12-.09v1.38c0,.34-.17.52-.52.52h-.17c-.23-.09-.34-.29-.34-.6v-1.12c0-.12-.06-.17-.17-.17h-1.03c-.57,0-.86-.23-.86-.69.06-.23.23-.34.52-.34ZM8.36,0h.26c.21.11.35.28.43.52-.12.29-.17.52-.17.69,1.32.61,1.98,1.07,1.98,1.38-.12.31-.26.48-.43.52-.36-.07-.99-.39-1.89-.95-.23.8-.4,1.21-.52,1.21h-.43c-.12-.03-.23-.17-.34-.43.49-1.95.87-2.93,1.12-2.93Z"/>
      <path class="cls-1" d="M2.34,6.21h.16c.78.84,2.01,1.59,3.69,2.24.21.44.32.76.32.96-.07.32-.39.59-.96.8-1.58-.75-2.49-1.12-2.72-1.12h-.16c-.43,1.39-.8,2.09-1.12,2.09h-.8c-.15,0-.31-.16-.48-.48v-.48l1.44-3.85c.19-.11.4-.16.64-.16ZM3.78,10.22h.64c.43,0,.7.85.8,2.56,1.71,0,2.56.43,2.56,1.28,0,.54-.48.8-1.44.8H1.38c-.16,0-.38-.21-.64-.64v-.64c0-.17.21-.38.64-.64h1.61c.21,0,.32-.11.32-.32v-1.92c0-.15.16-.31.48-.48ZM2.66,15.51l.32.16c.85,0,1.97-.05,3.36-.16.75.26,1.12,1.17,1.12,2.72v.32c0,.85-.43,1.28-1.28,1.28-.34,0-.61-.43-.8-1.28.11-.19.16-.4.16-.64,0-.21-.11-.32-.32-.32h-2.4c-.75,0-1.12-.38-1.12-1.12,0-.4.32-.72.96-.96Z"/>
      <path class="cls-1" d="M8.93,9.09c.51,0,1.04.05,1.6.16.05,0,.27-.05.64-.16,2.67,0,4.01.64,4.01,1.92,0,.32.05.7.16,1.12,0,2.78-.64,4.17-1.92,4.17-2.78,0-4.17-.64-4.17-1.92-.43-2.63-.64-4.12-.64-4.49.21-.35.32-.62.32-.8ZM10.69,11.18v.16c.2,1.93.52,2.89.96,2.89.41.11.84.16,1.28.16.21-.42.32-1.01.32-1.76v-.96c0-.16-.16-.32-.48-.48h-2.09ZM17.59,8.93c.66.22,1.04.49,1.12.8v2.24c0,.21.75.48,2.24.8l.48.64v.48c0,.17-.21.38-.64.64l-1.93-.16v2.24c0,.75-.37,1.12-1.12,1.12-.64-.08-.96-.51-.96-1.28v-6.42c0-.6.27-.97.8-1.12Z"/>
      <path class="cls-1" d="M28.82,12.3c.32.39.48.77.48,1.12,0,.64-.37.96-1.12.96-.43,0-.64-.05-.64-.16l-4.33.32c-.64-.27-.96-.65-.96-1.12.22-.64.65-.96,1.28-.96s2.38-.05,5.29-.16ZM25.14,5.89c1.82.43,2.72,1.34,2.72,2.72-.32,1.71-.96,2.57-1.92,2.57h-.32c-1.44,0-2.51-.91-3.21-2.72v-.64c0-.98.91-1.62,2.72-1.93ZM28.02,15.35c.53.4.8,1.47.8,3.21v1.28c0,.86-.59,1.28-1.76,1.28h-.32c-2.03-.21-3.05-.59-3.05-1.12-.11-.41-.16-.84-.16-1.28v-1.92c0-.96,1.07-1.44,3.21-1.44h1.28ZM24.17,8.3c.67.64,1.15.96,1.44.96.21-.35.32-.67.32-.96-.39-.32-.76-.48-1.12-.48h-.16c-.15,0-.31.16-.48.48ZM25.46,17.75v.96c.04.21.14.32.32.32h1.12v-1.44c0-.21-.16-.32-.48-.32-.64.11-.96.27-.96.48Z"/>
    </g>
  </g>
</svg>