<svg width="32" height="32" viewBox="0 0 32 32" fill="none" xmlns="http://www.w3.org/2000/svg">
<path d="M15.8333 31.6667C13.6431 31.6667 11.5847 31.251 9.65833 30.4198C7.73194 29.5885 6.05625 28.4604 4.63125 27.0354C3.20625 25.6104 2.07812 23.9347 1.24687 22.0083C0.415625 20.0819 0 18.0236 0 15.8333C0 13.6431 0.415625 11.5847 1.24687 9.65833C2.07812 7.73194 3.20625 6.05625 4.63125 4.63125C6.05625 3.20625 7.73194 2.07812 9.65833 1.24687C11.5847 0.415625 13.6431 0 15.8333 0C18.0236 0 20.0819 0.415625 22.0083 1.24687C23.9347 2.07812 25.6104 3.20625 27.0354 4.63125C28.4604 6.05625 29.5885 7.73194 30.4198 9.65833C31.251 11.5847 31.6667 13.6431 31.6667 15.8333C31.6667 18.0236 31.251 20.0819 30.4198 22.0083C29.5885 23.9347 28.4604 25.6104 27.0354 27.0354C25.6104 28.4604 23.9347 29.5885 22.0083 30.4198C20.0819 31.251 18.0236 31.6667 15.8333 31.6667ZM15.8333 28.5C17.2583 28.5 18.6306 28.2691 19.95 27.8073C21.2694 27.3455 22.4833 26.6792 23.5917 25.8083L5.85833 8.075C4.9875 9.18333 4.32118 10.3972 3.85937 11.7167C3.39757 13.0361 3.16667 14.4083 3.16667 15.8333C3.16667 19.3694 4.39375 22.3646 6.84792 24.8187C9.30208 27.2729 12.2972 28.5 15.8333 28.5ZM25.8083 23.5917C26.6792 22.4833 27.3455 21.2694 27.8073 19.95C28.2691 18.6306 28.5 17.2583 28.5 15.8333C28.5 12.2972 27.2729 9.30208 24.8187 6.84792C22.3646 4.39375 19.3694 3.16667 15.8333 3.16667C14.4083 3.16667 13.0361 3.39757 11.7167 3.85937C10.3972 4.32118 9.18333 4.9875 8.075 5.85833L25.8083 23.5917Z" fill="#1C1B1F"/>
</svg>
