<svg width="35" height="35" viewBox="0 0 35 35" fill="none" xmlns="http://www.w3.org/2000/svg">
<path d="M17.5 26.25C17.9958 26.25 18.4115 26.0823 18.7469 25.7469C19.0823 25.4115 19.25 24.9958 19.25 24.5C19.25 24.0042 19.0823 23.5885 18.7469 23.2531C18.4115 22.9177 17.9958 22.75 17.5 22.75C17.0042 22.75 16.5885 22.9177 16.2531 23.2531C15.9177 23.5885 15.75 24.0042 15.75 24.5C15.75 24.9958 15.9177 25.4115 16.2531 25.7469C16.5885 26.0823 17.0042 26.25 17.5 26.25ZM15.75 19.25H19.25V8.75H15.75V19.25ZM17.5 35C15.0792 35 12.8042 34.5406 10.675 33.6219C8.54583 32.7031 6.69375 31.4563 5.11875 29.8813C3.54375 28.3063 2.29688 26.4542 1.37813 24.325C0.459375 22.1958 0 19.9208 0 17.5C0 15.0792 0.459375 12.8042 1.37813 10.675C2.29688 8.54583 3.54375 6.69375 5.11875 5.11875C6.69375 3.54375 8.54583 2.29688 10.675 1.37813C12.8042 0.459375 15.0792 0 17.5 0C19.9208 0 22.1958 0.459375 24.325 1.37813C26.4542 2.29688 28.3063 3.54375 29.8813 5.11875C31.4563 6.69375 32.7031 8.54583 33.6219 10.675C34.5406 12.8042 35 15.0792 35 17.5C35 19.9208 34.5406 22.1958 33.6219 24.325C32.7031 26.4542 31.4563 28.3063 29.8813 29.8813C28.3063 31.4563 26.4542 32.7031 24.325 33.6219C22.1958 34.5406 19.9208 35 17.5 35Z" fill="#FE0000"/>
</svg>
