<svg width="40" height="37" viewBox="0 0 40 37" fill="none" xmlns="http://www.w3.org/2000/svg">
<path d="M20 37L17.1 34.3787C13.7333 31.3206 10.95 28.6826 8.75 26.4646C6.55 24.2466 4.8 22.2555 3.5 20.4911C2.2 18.7268 1.29167 17.1054 0.775 15.6267C0.258333 14.148 0 12.6358 0 11.0899C0 7.93097 1.05 5.29292 3.15 3.17575C5.25 1.05858 7.86667 0 11 0C12.7333 0 14.3833 0.369664 15.95 1.10899C17.5167 1.84832 18.8667 2.8901 20 4.23433C21.1333 2.8901 22.4833 1.84832 24.05 1.10899C25.6167 0.369664 27.2667 0 29 0C32.1333 0 34.75 1.05858 36.85 3.17575C38.95 5.29292 40 7.93097 40 11.0899C40 12.6358 39.7417 14.148 39.225 15.6267C38.7083 17.1054 37.8 18.7268 36.5 20.4911C35.2 22.2555 33.45 24.2466 31.25 26.4646C29.05 28.6826 26.2667 31.3206 22.9 34.3787L20 37Z" fill="#DFDFDF"/>
</svg>
