<svg width="25" height="25" viewBox="0 0 25 25" fill="none" xmlns="http://www.w3.org/2000/svg">
<path d="M22.9167 10.4167C22.9167 3.33333 17.9167 0 12.5 0C7.08333 0 2.08333 3.33333 2.08333 10.4167C0.625 10.4167 0 11.4583 0 12.5C0 13.5417 0.625 14.5833 2.08333 14.5833C2.08333 17.375 5 21.25 12.5 21.25C20 21.25 22.9167 17.375 22.9167 14.5833C24.375 14.5833 25 13.5417 25 12.5C25 11.4583 24.375 10.4167 22.9167 10.4167Z" fill="#FFDD67"/>
<path d="M12.9166 5.41667C11.25 4.16667 12.0833 2.5 12.0833 2.5C12.0833 2.5 15.4166 4.58333 18.3333 3.75C18.3333 3.75 16.6666 3.33333 16.25 2.08333C16.25 2.08333 17.9166 2.5 19.1666 2.08333C17.5 0.833333 15.4166 0 12.5 0C9.58331 0 7.49998 0.833333 5.83331 2.08333C7.49998 4.16667 9.16665 5.41667 12.9166 5.41667Z" fill="#FFB300"/>
<path opacity="0.5" d="M22.5 14.75C22.3334 13.75 21.125 13.125 19.75 13.4167C18.375 13.6667 17.375 14.7083 17.5417 15.7083C17.7084 16.7083 18.9167 17.3333 20.2917 17.0417C21.625 16.75 22.625 15.75 22.5 14.75ZM5.25003 13.375C3.9167 13.125 2.6667 13.75 2.50003 14.75C2.33336 15.75 3.33336 16.7917 4.70836 17.0417C6.08336 17.2917 7.33336 16.7083 7.45836 15.7083C7.62503 14.6667 6.62503 13.6667 5.25003 13.375Z" fill="#FF717F"/>
<path d="M9.99998 10.625C9.99998 12.125 8.79165 13.3334 7.29165 13.3334C5.79165 13.3334 4.58331 12.125 4.58331 10.625C4.58331 9.12502 5.79165 7.91669 7.29165 7.91669C8.79165 7.91669 9.99998 9.12502 9.99998 10.625Z" fill="white"/>
<path d="M7.29169 12.5C8.32722 12.5 9.16669 11.6605 9.16669 10.625C9.16669 9.58947 8.32722 8.75 7.29169 8.75C6.25615 8.75 5.41669 9.58947 5.41669 10.625C5.41669 11.6605 6.25615 12.5 7.29169 12.5Z" fill="#664E27"/>
<path d="M7.91669 10.625C7.91669 10.9583 7.62502 11.25 7.29169 11.25C6.95835 11.25 6.66669 10.9583 6.66669 10.625C6.66669 10.2917 6.95835 10 7.29169 10C7.62502 10 7.91669 10.2917 7.91669 10.625Z" fill="#231F20"/>
<path d="M20.4167 10.625C20.4167 12.125 19.2083 13.3334 17.7083 13.3334C16.2083 13.3334 15 12.125 15 10.625C15 9.12502 16.2083 7.91669 17.7083 7.91669C19.2083 7.91669 20.4167 9.12502 20.4167 10.625Z" fill="white"/>
<path d="M17.7083 12.5C18.7438 12.5 19.5833 11.6605 19.5833 10.625C19.5833 9.58947 18.7438 8.75 17.7083 8.75C16.6728 8.75 15.8333 9.58947 15.8333 10.625C15.8333 11.6605 16.6728 12.5 17.7083 12.5Z" fill="#664E27"/>
<path d="M17.7083 11.25C18.0535 11.25 18.3333 10.9702 18.3333 10.625C18.3333 10.2798 18.0535 10 17.7083 10C17.3631 10 17.0833 10.2798 17.0833 10.625C17.0833 10.9702 17.3631 11.25 17.7083 11.25Z" fill="#231F20"/>
<path d="M18.75 17.4166C18.75 20.875 15.9583 22.5 12.5 22.5C9.04167 22.5 6.25 20.875 6.25 17.4166C6.25 13.9166 9.08333 15.4166 12.5 15.4166C15.9583 15.4166 18.75 13.9166 18.75 17.4166Z" fill="#61C2FF"/>
<path d="M12.5 20.8334C13.8807 20.8334 15 19.9006 15 18.75C15 17.5994 13.8807 16.6667 12.5 16.6667C11.1193 16.6667 10 17.5994 10 18.75C10 19.9006 11.1193 20.8334 12.5 20.8334Z" fill="#6235A8"/>
<path d="M12.5 18.3334C9.95835 18.3334 7.91669 18.0417 7.91669 20.5C7.91669 23 9.95835 25 12.5 25C15.0417 25 17.0834 23 17.0834 20.5417C17.0834 18.0417 15.0417 18.3334 12.5 18.3334ZM12.5 23.5C10.7084 23.5 9.04169 22.2917 9.04169 20.5417C9.04169 18.7917 10.7084 19.2084 12.5 19.2084C14.2917 19.2084 15.9584 18.7917 15.9584 20.5417C15.9584 22.2917 14.2917 23.5 12.5 23.5Z" fill="#FBBF67"/>
<path d="M14.1666 19.5C14.1666 19.75 13.9583 20 13.7083 20H11.2916C11.0416 20 10.8333 19.7917 10.8333 19.5V18.375C10.8333 18.125 11.0416 17.875 11.2916 17.875H13.7083C13.9583 17.875 14.1666 18.0833 14.1666 18.375V19.5Z" fill="#42ADE2"/>
<path d="M12.5 15C10.75 15 9.875 13.75 10.75 13.75H14.25C15.125 13.75 14.25 15 12.5 15Z" fill="#EBA352"/>
</svg>
