<svg width="25" height="25" viewBox="0 0 25 25" fill="none" xmlns="http://www.w3.org/2000/svg">
<path d="M0 0H25V25H0V0Z" fill="white"/>
<path d="M22.9297 2.07031H20.7422L14.5703 9.96094L10.8203 5.58594L0 21.2891V25H2.5L11.1719 12.3828L14.7656 16.5234L22.9297 6.05469V2.07031Z" fill="#52C18E"/>
<path d="M25 0H0V19.8047L1.17188 18.125H0.820312V12.9297H4.72656L5.3125 12.1094H0.820312V6.875H6.01562V11.0547L6.83594 9.84375V6.875H8.86719L9.45312 6.05469H6.83594V0.820312H12.0312V5.78125L12.9688 6.875H15.8984L16.5625 6.05469H12.8906V0.820312H18.0859V4.0625L18.9062 3.00781V0.820312H24.1016V6.01562H23.6719V6.32813L23.2812 6.83594H24.1016V12.0312H19.2578L18.125 13.5156V18.0859H12.9297V15.625L12.1094 14.6484V18.0469H8.28125L7.69531 18.8672H12.1094V24.0625H6.875V20.1172L6.05469 21.3281V24.1797H4.10156L3.51562 25H25V0ZM6.05469 6.05469H0.820312V0.820312H6.01562C6.05469 0.820312 6.05469 6.05469 6.05469 6.05469ZM18.125 24.1797H12.9297V18.9453H18.125V24.1797ZM24.1797 24.1797H18.9453V18.9453H24.1406V24.1797H24.1797ZM24.1797 18.125H18.9453V12.9297H24.1406V18.125H24.1797Z" fill="#D0D5D8"/>
</svg>
