<svg width="25" height="25" viewBox="0 0 25 25" fill="none" xmlns="http://www.w3.org/2000/svg">
<path d="M3.09888 16.0675L15.5577 3.61179L21.3852 9.4408L8.92594 21.8965L3.09888 16.0675Z" fill="#FFCE31"/>
<path d="M23.9453 1.79691L23.2031 1.05471C21.7968 -0.351569 19.5311 -0.351569 18.0858 1.05471L15.5467 3.59382L21.4062 9.4533L23.9453 6.91419C25.3516 5.50792 25.3516 3.20318 23.9453 1.79691Z" fill="#ED4C5C"/>
<path d="M13.9771 5.19933L15.5787 3.59695L21.4069 9.42519L19.8053 11.0272L13.9771 5.19933Z" fill="#93A2AA"/>
<path d="M14.5849 5.80676L16.1865 4.20477L20.7721 8.79001L19.1698 10.3916L14.5849 5.80676Z" fill="#C7D3D8"/>
<path d="M3.08556 16.055L0.546448 22.6957L2.30429 24.4536L8.94504 21.9145L3.08556 16.055Z" fill="#FED0AC"/>
<path d="M0.116726 23.8676C-0.234843 24.8052 0.233916 25.2349 1.17143 24.8833L4.37462 23.6723L1.36675 20.6645L0.116726 23.8676Z" fill="#333333"/>
<path d="M3.0816 16.0843L13.9646 5.20126L15.8982 7.13489L5.01523 18.0179L3.0816 16.0843Z" fill="#FFDF85"/>
<path d="M6.99341 19.9777L17.8764 9.0947L19.8101 11.0283L8.92704 21.9113L6.99341 19.9777Z" fill="#FF8736"/>
</svg>
