<svg width="25" height="25" viewBox="0 0 25 25" fill="none" xmlns="http://www.w3.org/2000/svg">
<path d="M12.5 25C19.4036 25 25 19.4036 25 12.5C25 5.59644 19.4036 0 12.5 0C5.59644 0 0 5.59644 0 12.5C0 19.4036 5.59644 25 12.5 25Z" fill="#FFDD67"/>
<path d="M7.70833 12.3333C8.85893 12.3333 9.79167 11.4006 9.79167 10.25C9.79167 9.0994 8.85893 8.16666 7.70833 8.16666C6.55774 8.16666 5.625 9.0994 5.625 10.25C5.625 11.4006 6.55774 12.3333 7.70833 12.3333Z" fill="#664E27"/>
<path d="M17.2916 12.3333C18.4422 12.3333 19.375 11.4006 19.375 10.25C19.375 9.0994 18.4422 8.16666 17.2916 8.16666C16.1411 8.16666 15.2083 9.0994 15.2083 10.25C15.2083 11.4006 16.1411 12.3333 17.2916 12.3333Z" fill="#664E27"/>
<path d="M17.75 15.9583C14.375 18.3333 10.625 18.2917 7.24999 15.9583C6.83333 15.6667 6.49999 16.1667 6.74999 16.625C7.79166 18.2917 9.83333 19.8333 12.5 19.8333C15.1667 19.8333 17.2083 18.3333 18.25 16.625C18.5 16.1667 18.1667 15.6667 17.75 15.9583Z" fill="#664E27"/>
</svg>
