<svg width="46" height="46" viewBox="0 0 46 46" fill="none" xmlns="http://www.w3.org/2000/svg">
<path d="M23 0C35.7267 0 46 10.2733 46 23C46 35.7267 35.7267 46 23 46C10.2733 46 0 35.7267 0 23C0 10.2733 10.2733 0 23 0Z" fill="#FFDD67"/>
<path d="M25.9133 14.1833C24.2267 15.0267 21.6967 15.0267 20.01 14.1833C18.2467 13.2633 16.0233 12.65 13.34 12.42C10.7333 12.19 5.28999 12.19 2.60666 13.1867C2.29999 13.2633 1.99333 13.4167 1.68666 13.57C1.60999 13.6467 1.53333 13.7233 1.53333 14.03V14.4133C1.53333 15.18 1.45666 14.8733 1.99333 15.18C3.06666 15.7933 3.67999 17.4033 3.98666 19.6267C4.44666 22.8467 6.05666 24.9167 8.58666 25.8367C10.9633 26.7567 13.6467 26.68 16.0233 25.76C17.3267 25.2233 18.4767 24.4567 19.3967 23.0767C21.0067 20.7767 20.47 19.32 21.3133 17.3267C22.0033 15.5633 23.9967 15.5633 24.7633 17.3267C25.6067 19.32 25.07 20.7767 26.68 23.0767C27.6 24.38 28.75 25.2233 30.0533 25.76C32.43 26.68 35.1133 26.7567 37.49 25.8367C40.0967 24.84 41.63 22.8467 42.09 19.6267C42.3967 17.4033 43.01 15.7933 44.0833 15.18C44.62 14.8733 44.5433 15.18 44.5433 14.4133V14.03C44.5433 13.7233 44.5433 13.6467 44.3133 13.57C44.0067 13.4167 43.7 13.2633 43.3933 13.1867C40.6333 12.19 35.19 12.19 32.66 12.42C29.9767 12.65 27.7533 13.2633 25.9133 14.1833Z" fill="#494949"/>
<path d="M32.6599 30.8967C26.4499 35.2667 19.5499 35.19 13.3399 30.8967C12.5733 30.36 11.9599 31.28 12.4199 32.1233C14.3366 35.19 18.0933 38.0267 22.9999 38.0267C27.9066 38.0267 31.6633 35.2667 33.5799 32.1233C34.0399 31.28 33.4266 30.36 32.6599 30.8967Z" fill="#664E27"/>
</svg>
