<svg width="25" height="25" viewBox="0 0 25 25" fill="none" xmlns="http://www.w3.org/2000/svg">
<path d="M25 1.66667C25 0.833333 24.1667 0 23.3333 0H1.66667C0.833333 0 0 0.833333 0 1.66667V17.5H25V1.66667Z" fill="#212528"/>
<path d="M0 17.5V19.1667C0 20 0.833333 20.8333 1.66667 20.8333H23.3333C24.1667 20.8333 25 20 25 19.1667V17.5H0Z" fill="#DDDDDD"/>
<path d="M9.16671 21.6667C9.16671 23.3333 7.50004 23.3333 5.83337 23.3333H19.1667C17.5 23.3333 15.8334 23.3333 15.8334 21.6667V20.8333H9.16671V21.6667Z" fill="#BFBEBE"/>
<path d="M1.66669 1.66666H23.3334V15.8333H1.66669V1.66666Z" fill="#3E4347"/>
<path d="M12.5 19.5417C12.7301 19.5417 12.9166 19.3551 12.9166 19.125C12.9166 18.8949 12.7301 18.7083 12.5 18.7083C12.2699 18.7083 12.0833 18.8949 12.0833 19.125C12.0833 19.3551 12.2699 19.5417 12.5 19.5417Z" fill="#94989B"/>
<path d="M5.83337 23.3333H19.1667V25H5.83337V23.3333Z" fill="#94989B"/>
</svg>
